<svg width="1398" height="1289" viewBox="0 0 1398 1289" fill="none" xmlns="http://www.w3.org/2000/svg">
<path d="M563.77 996.334C563.77 996.334 460.591 1016.1 436.544 1024.24C412.497 1032.37 391.484 1048.66 380.019 1100.72C368.554 1152.78 361.579 1217.27 359.41 1247.11" stroke="black" stroke-width="32"/>
<path d="M295.931 1168.29L376.164 1233.67C376.723 1249.61 375.213 1287.08 340.315 1268.96C309.507 1256.11 272.47 1223.99 257.311 1207.77C250.32 1200.78 239.686 1182.7 253.078 1166.27C266.47 1149.83 287.227 1160.77 295.931 1168.29Z" fill="black"/>
<path d="M820.998 996.334C820.998 996.334 924.177 1016.1 948.225 1024.24C972.272 1032.37 993.284 1048.66 1004.75 1100.72C1016.21 1152.78 1023.19 1217.27 1025.36 1247.11" stroke="black" stroke-width="32"/>
<path d="M1088.84 1168.29L1008.6 1233.67C1008.05 1249.61 1009.56 1287.08 1044.45 1268.96C1075.26 1256.11 1112.3 1223.99 1127.46 1207.77C1134.45 1200.78 1145.08 1182.7 1131.69 1166.27C1118.3 1149.83 1097.54 1160.77 1088.84 1168.29Z" fill="black"/>
<path d="M343.198 664.944C343.198 664.944 254.698 587.444 169.698 664.944C84.6979 742.444 123.198 877.444 123.198 877.444" stroke="black" stroke-width="31"/>
<path d="M1054 597.5C1054 597.5 1142.5 675 1227.5 597.5C1312.5 520 1274 385 1274 385" stroke="black" stroke-width="31"/>
<path d="M1140.19 1045C1217.69 923 1140.19 377.5 1140.19 377.5C1292.55 47.3775 984.688 14 751.188 14H658.693C425.193 14 117.328 47.3775 269.693 377.5C269.693 377.5 192.193 923 269.693 1045C351.716 1174.12 571.041 1153.5 704.94 1153.5C838.84 1153.5 1058.17 1174.12 1140.19 1045Z" fill="#F8ECB6" stroke="black" stroke-width="28"/>
<path d="M573.082 454.748C576.661 464.023 587.081 468.64 596.356 465.061C605.63 461.482 610.248 451.063 606.669 441.788L573.082 454.748ZM428.129 489.349C429.519 499.192 438.626 506.045 448.469 504.655C458.313 503.266 465.166 494.159 463.776 484.316L428.129 489.349ZM589.876 448.268C606.669 441.788 606.665 441.78 606.662 441.771C606.661 441.768 606.657 441.759 606.655 441.752C606.65 441.739 606.644 441.725 606.638 441.71C606.627 441.68 606.614 441.647 606.599 441.609C606.569 441.534 606.533 441.444 606.491 441.34C606.406 441.131 606.296 440.863 606.16 440.542C605.887 439.9 605.508 439.039 605.017 437.997C604.038 435.917 602.603 433.086 600.668 429.8C596.831 423.287 590.842 414.673 582.267 406.601C564.509 389.884 536.161 376.215 496.786 386.766L506.103 421.539C531.445 414.749 547.313 423.138 557.591 432.814C563.034 437.938 567.018 443.605 569.65 448.073C570.949 450.278 571.872 452.112 572.443 453.325C572.728 453.93 572.921 454.373 573.027 454.622C573.08 454.747 573.111 454.822 573.12 454.845C573.125 454.856 573.124 454.854 573.118 454.838C573.114 454.83 573.11 454.819 573.104 454.804C573.101 454.796 573.098 454.788 573.094 454.779C573.092 454.774 573.089 454.766 573.089 454.764C573.086 454.756 573.082 454.748 589.876 448.268ZM496.786 386.766C457.448 397.306 439.533 423.323 432.249 446.625C428.725 457.902 427.7 468.365 427.527 475.94C427.44 479.76 427.567 482.936 427.726 485.232C427.805 486.383 427.893 487.319 427.967 488.013C428.005 488.36 428.039 488.648 428.066 488.871C428.08 488.983 428.093 489.079 428.103 489.159C428.109 489.199 428.114 489.234 428.118 489.266C428.12 489.282 428.122 489.297 428.124 489.31C428.125 489.317 428.126 489.327 428.127 489.33C428.128 489.34 428.129 489.349 445.953 486.832C463.776 484.316 463.777 484.324 463.778 484.332C463.779 484.335 463.78 484.343 463.78 484.348C463.782 484.358 463.783 484.367 463.784 484.374C463.786 484.39 463.788 484.402 463.789 484.411C463.791 484.427 463.791 484.429 463.79 484.417C463.787 484.392 463.777 484.311 463.762 484.175C463.733 483.903 463.686 483.419 463.64 482.749C463.547 481.404 463.459 479.34 463.518 476.764C463.637 471.546 464.351 464.591 466.61 457.365C470.893 443.663 480.724 428.34 506.103 421.539L496.786 386.766Z" fill="black"/>
<path d="M833.793 454.748C830.214 464.023 819.795 468.64 810.52 465.061C801.245 461.482 796.628 451.063 800.207 441.788L833.793 454.748ZM978.746 489.349C977.356 499.192 968.25 506.045 958.406 504.655C948.563 503.266 941.71 494.159 943.1 484.316L978.746 489.349ZM817 448.268C800.207 441.788 800.21 441.78 800.214 441.771C800.215 441.768 800.218 441.759 800.221 441.752C800.226 441.739 800.231 441.725 800.237 441.71C800.249 441.68 800.262 441.647 800.277 441.609C800.306 441.534 800.342 441.444 800.385 441.34C800.469 441.131 800.579 440.863 800.716 440.542C800.989 439.9 801.368 439.039 801.859 437.997C802.837 435.917 804.272 433.086 806.207 429.8C810.044 423.287 816.034 414.673 824.609 406.601C842.367 389.884 870.715 376.215 910.09 386.766L900.772 421.539C875.43 414.749 859.563 423.138 849.285 432.814C843.841 437.938 839.858 443.605 837.226 448.073C835.926 450.278 835.003 452.112 834.432 453.325C834.148 453.93 833.954 454.373 833.848 454.622C833.795 454.747 833.765 454.822 833.755 454.845C833.751 454.856 833.752 454.854 833.758 454.838C833.761 454.83 833.766 454.819 833.772 454.804C833.775 454.796 833.778 454.788 833.781 454.779C833.783 454.774 833.786 454.766 833.787 454.764C833.79 454.756 833.793 454.748 817 448.268ZM910.09 386.766C949.427 397.306 967.343 423.323 974.626 446.625C978.151 457.902 979.175 468.365 979.348 475.94C979.436 479.76 979.309 482.936 979.15 485.232C979.071 486.383 978.983 487.319 978.908 488.013C978.871 488.36 978.837 488.648 978.809 488.871C978.795 488.983 978.783 489.079 978.772 489.159C978.767 489.199 978.762 489.234 978.758 489.266C978.755 489.282 978.753 489.297 978.752 489.31C978.751 489.317 978.749 489.327 978.749 489.33C978.747 489.34 978.746 489.349 960.923 486.832C943.1 484.316 943.099 484.324 943.097 484.332C943.097 484.335 943.096 484.343 943.095 484.348C943.094 484.358 943.093 484.367 943.092 484.374C943.089 484.39 943.088 484.402 943.087 484.411C943.084 484.427 943.084 484.429 943.086 484.417C943.089 484.392 943.099 484.311 943.113 484.175C943.142 483.903 943.189 483.419 943.236 482.749C943.329 481.404 943.417 479.34 943.358 476.764C943.239 471.546 942.524 464.591 940.266 457.365C935.983 443.663 926.152 428.34 900.772 421.539L910.09 386.766Z" fill="black"/>
<path d="M768.426 569.742C756.026 586.942 731 595.242 704.926 595.242C678.853 595.242 653.615 586.942 641.215 569.742C625.715 548.242 604.426 660.242 704.926 660.242C805.426 660.242 783.926 548.242 768.426 569.742Z" fill="white" stroke="black" stroke-width="31"/>
<path d="M386.354 44C389.954 12 287 96.6666 284 89L272.5 119L233.354 156.5C254 375.5 280 346 233.354 666C192.244 948.024 233 973.5 254 1020C275 1066.5 345.254 1164.9 700.854 1154.5C1005.85 1154.5 1059.35 1105.5 1079.85 1094.5L1112.35 1069C1064.85 1085 879.855 1083 810.855 1079.5C755.655 1076.7 642.854 1053.33 593.354 1042C582.521 1038.17 551.454 1028.4 513.854 1020C455.38 1006.94 420.584 958.895 386 915C331.336 845.619 346.792 710.393 341.354 629.5C337.354 570 340.354 332 341.354 247C342.354 162 381.854 84 386.354 44Z" fill="#EED76E"/>
<path d="M1140.19 1045C1217.69 923 1140.19 377.5 1140.19 377.5C1292.55 47.3775 984.688 14 751.188 14H658.693C425.193 14 117.328 47.3775 269.693 377.5C269.693 377.5 192.193 923 269.693 1045C351.716 1174.12 571.041 1153.5 704.94 1153.5C838.84 1153.5 1058.17 1174.12 1140.19 1045Z" stroke="black" stroke-width="28"/>
</svg>
