<svg width="1373" height="1640" viewBox="0 0 1373 1640" fill="none" xmlns="http://www.w3.org/2000/svg">
<path d="M183 846C172.2 561.2 201.167 390.667 217 341L281 271H1062.5C1094.67 294.333 1159 342.2 1159 347C1201.8 412.2 1196.17 815.167 1188 1008.5C1178.8 1207.7 1114 1251.9 1063.5 1279C1043 1290 989.5 1339 684.5 1339C328.9 1349.4 241 1228.5 220 1182C199 1135.5 193.8 1130.8 183 846Z" fill="#F65A81"/>
<path d="M333 408.5C336.6 376.5 331.5 353.167 328.5 345.5L279 306.5L217 341C201.167 390.667 172.2 561.2 183 846C193.8 1130.8 199 1135.5 220 1182C241 1228.5 328.9 1349.4 684.5 1339C989.5 1339 1043 1290 1063.5 1279L1096 1253.5C1048.5 1269.5 863.5 1267.5 794.5 1264C739.3 1261.2 626.5 1237.83 577 1226.5C566.167 1222.67 535.1 1212.9 497.5 1204.5C450.5 1194 406 1148 400 1139C394 1130 383 1108.5 370 1092C357 1075.5 359.5 1072.5 350.5 1056C341.5 1039.5 329 873.5 325 814C321 754.5 322.5 593 321.5 560C320.5 527 328.5 448.5 333 408.5Z" fill="#E93B67"/>
<path d="M183 846C172.2 561.2 201.167 390.667 217 341L281 271H1062.5C1094.67 294.333 1159 342.2 1159 347C1201.8 412.2 1196.17 815.167 1188 1008.5C1178.8 1207.7 1114 1251.9 1063.5 1279C1043 1290 989.5 1339 684.5 1339C328.9 1349.4 241 1228.5 220 1182C199 1135.5 193.8 1130.8 183 846Z" stroke="black" stroke-width="25"/>
<path d="M181.5 730C148.833 715 79.1 658.9 61.5 554.5C39.5 424 32.5 345.5 36 282" stroke="black" stroke-width="32"/>
<path d="M40.5 143C60.3822 143 80.5 168.118 80.5 188C90.4411 188 97.5 200.536 97.5 216C97.5 251 64.8333 279 52.5 283L51 291.5H20V277.5C2.50001 264 7.62939e-06 243.5 7.62939e-06 220.5C7.62939e-06 202.1 2.99999 187 5.5 174.5C8.00001 162 20.6177 143 40.5 143Z" fill="black"/>
<path d="M1067.5 1279.5C1067.5 1279.5 1135 1360 1148.5 1381.5C1162 1403 1168 1428.9 1144 1476.5C1120 1524.1 1084.67 1578.5 1067.5 1603" stroke="black" stroke-width="32"/>
<path d="M1166.5 1582H1063C1052.5 1594 1030 1624 1068.5 1632C1100.5 1641.5 1149.5 1640 1171.5 1637C1181.33 1636 1201 1628.7 1201 1607.5C1201 1586.3 1178 1581.67 1166.5 1582Z" fill="black"/>
<path d="M314.5 1279C314.5 1279 247 1359.5 233.5 1381C220 1402.5 214 1428.4 238 1476C262 1523.6 297.333 1578 314.5 1602.5" stroke="black" stroke-width="32"/>
<path d="M215.5 1581.5H319C329.5 1593.5 352 1623.5 313.5 1631.5C281.5 1641 232.5 1639.5 210.5 1636.5C200.667 1635.5 181 1628.2 181 1607C181 1585.8 204 1581.17 215.5 1581.5Z" fill="black"/>
<path d="M1191 730C1223.67 715 1293.4 658.9 1311 554.5C1333 424 1340 345.5 1336.5 282" stroke="black" stroke-width="32"/>
<path d="M1332 143C1312.12 143 1292 168.118 1292 188C1282.06 188 1275 200.536 1275 216C1275 251 1307.67 279 1320 283L1321.5 291.5H1352.5V277.5C1370 264 1372.5 243.5 1372.5 220.5C1372.5 202.1 1369.5 187 1367 174.5C1364.5 162 1351.88 143 1332 143Z" fill="black"/>
<ellipse cx="520" cy="712" rx="44" ry="83" fill="white"/>
<ellipse cx="864.5" cy="694" rx="47.5" ry="83" fill="white"/>
<path fill-rule="evenodd" clip-rule="evenodd" d="M920.5 730C916 806.5 909 903.5 858 900.5C807 897.5 800.5 826 801.5 725.5C802.5 625 822 572.5 868.5 573C915 573.5 925 653.5 920.5 730ZM900 662.5C900 682.658 893.098 700.5 881.5 700.5C869.902 700.5 858 682.658 858 662.5C858 642.342 866 626.5 879 626.5C895.5 626.5 900 642.342 900 662.5ZM859.4 731.545C859.451 731.047 859.5 730.559 859.5 730C859.5 721.716 856.232 713.5 848.5 713.5C840.768 713.5 836 719.716 836 728C836 736.284 839.651 750.5 847.383 750.5C847.878 750.5 848.42 750.512 848.995 750.524C853.043 750.613 858.692 750.737 860.5 747C862.522 742.821 861.472 740.374 860.412 737.905C860.076 737.124 859.74 736.341 859.5 735.5C859.187 733.651 859.296 732.575 859.4 731.545Z" fill="black"/>
<path fill-rule="evenodd" clip-rule="evenodd" d="M454.977 730.003C457.5 810.5 466.5 904 517.5 901C568.5 898 577.5 835.5 573.5 725.5C573.477 723.154 573.455 720.839 573.434 718.555C572.911 662.351 572.563 624.868 549.5 597C538.975 580.411 522.904 573.5 505 573.5C458.5 574 450.477 653.503 454.977 730.003ZM545.5 683.5C543.478 687.833 542.332 691.373 541.412 694.217C539.145 701.218 538.245 704 529 704C516 703 514 692.5 513 686C512.017 683.443 510.846 681.525 509.837 679.874C508.532 677.739 507.5 676.05 507.5 674C506.5 656 514 636 529 636C540 636 549 647.5 549 666C549 669.095 546.5 681.357 545.5 683.5ZM510.5 782C520 782 523.5 774.68 523.5 767.5C524.121 762.844 523 757 521.5 756C520 755 515.5 752.5 510.5 752.5C503.32 752.5 497.5 760.32 497.5 767.5C497.5 774.68 502 782 510.5 782Z" fill="black"/>
<path d="M631.898 879.087C630.842 869.202 621.972 862.046 612.087 863.102C602.202 864.158 595.046 873.028 596.102 882.913L631.898 879.087ZM780.867 883.182C782.072 873.314 775.05 864.338 765.182 863.133C755.314 861.928 746.338 868.95 745.133 878.818L780.867 883.182ZM614 881C596.102 882.913 596.103 882.922 596.104 882.931C596.104 882.935 596.105 882.944 596.106 882.951C596.108 882.965 596.109 882.98 596.111 882.996C596.115 883.028 596.119 883.064 596.123 883.104C596.132 883.184 596.144 883.28 596.158 883.392C596.185 883.616 596.222 883.902 596.271 884.248C596.369 884.939 596.512 885.868 596.716 887.002C597.123 889.264 597.776 892.371 598.795 896.045C600.816 903.33 604.372 913.2 610.565 923.216C623.392 943.96 647.236 964.5 688 964.5V928.5C661.764 928.5 648.608 916.29 641.185 904.284C637.253 897.925 634.872 891.42 633.486 886.424C632.802 883.957 632.385 881.946 632.147 880.627C632.029 879.97 631.957 879.491 631.919 879.223C631.9 879.089 631.89 879.008 631.887 878.984C631.885 878.972 631.886 878.974 631.887 878.991C631.888 879 631.89 879.012 631.892 879.028C631.893 879.036 631.894 879.045 631.895 879.055C631.895 879.06 631.896 879.068 631.896 879.07C631.897 879.079 631.898 879.087 614 881ZM688 964.5C728.725 964.5 752.764 944.006 765.83 923.384C772.153 913.404 775.851 903.562 777.979 896.29C779.052 892.623 779.751 889.522 780.192 887.263C780.413 886.131 780.57 885.204 780.678 884.514C780.732 884.169 780.774 883.883 780.804 883.66C780.82 883.548 780.833 883.452 780.843 883.372C780.848 883.333 780.853 883.297 780.857 883.265C780.859 883.249 780.861 883.234 780.863 883.221C780.863 883.214 780.865 883.204 780.865 883.201C780.866 883.191 780.867 883.182 763 881C745.133 878.818 745.134 878.809 745.135 878.801C745.135 878.798 745.136 878.79 745.137 878.785C745.138 878.776 745.139 878.767 745.14 878.759C745.142 878.743 745.144 878.731 745.145 878.723C745.147 878.706 745.147 878.704 745.146 878.716C745.142 878.741 745.131 878.822 745.11 878.957C745.067 879.227 744.988 879.707 744.859 880.366C744.6 881.689 744.151 883.706 743.428 886.179C741.962 891.188 739.472 897.721 735.42 904.116C727.736 916.244 714.275 928.5 688 928.5V964.5Z" fill="black"/>
<rect x="314.5" y="103.5" width="747" height="56" rx="15.5" fill="#F65A81" stroke="black" stroke-width="13"/>
<path d="M306 34C306 20.7452 316.745 10 330 10H1048C1061.25 10 1072 20.7452 1072 34V83C1072 96.2548 1061.25 107 1048 107H330C316.745 107 306 96.2548 306 83V34Z" fill="white" stroke="black" stroke-width="20"/>
<path d="M236 344C191 331.5 167 305.5 166.5 302.5C166 299.5 166.5 293.5 169 289C171.5 284.5 313 158.5 313 158.5L685.5 159H1058.5L1200 282.5C1200 282.5 1210 292 1212 299.5C1214 307 1180.5 332 1135.5 344.5C1097.61 355.025 1072.5 356.686 1052 352C1031.5 347.314 1032 322.398 989.5 319.5C929.5 315.409 912 349 868 349C809 349 827 324.5 788.5 325C750 325.5 744 345 671.5 343C623.5 343 631 323.5 592.5 323C554 322.5 562.5 348.5 503.5 348.5C459.5 348.5 442 314.909 382 319C345.665 321.477 342.5 347.5 325 351.5C307.5 355.5 273.89 354.525 236 344Z" fill="white" stroke="black" stroke-width="15"/>
<path d="M308 237L350 163" stroke="black" stroke-width="4" stroke-linecap="round"/>
<path d="M344 332.5L371.5 268L390.5 223L404.5 185.5" stroke="black" stroke-width="7" stroke-linecap="round"/>
<path d="M464.5 221.5C464.5 221.5 483 181 483 173C483 165 480 159 480 159" stroke="black" stroke-width="7" stroke-linecap="round"/>
<path d="M548 339.5C551.481 332.934 558.473 323.367 564.5 306.5C571 284.5 574.5 258 583 234" stroke="black" stroke-width="9" stroke-linecap="round"/>
<path d="M643.5 161.5L640 183L637.5 206.5" stroke="black" stroke-width="6" stroke-linecap="round"/>
<path d="M1068.5 237L1026.5 163" stroke="black" stroke-width="4" stroke-linecap="round"/>
<path d="M1032.5 332.5L1005 268L986 223L972 185.5" stroke="black" stroke-width="7" stroke-linecap="round"/>
<path d="M912 221.5C912 221.5 893.5 181 893.5 173C893.5 165 896.5 159 896.5 159" stroke="black" stroke-width="7" stroke-linecap="round"/>
<path d="M828.5 339.5C825.019 332.934 818.027 323.367 812 306.5C805.5 284.5 802 258 793.5 234" stroke="black" stroke-width="9" stroke-linecap="round"/>
<path d="M733 161.5L736.5 183L739 206.5" stroke="black" stroke-width="6" stroke-linecap="round"/>
</svg>
